<?xml version="1.0" encoding="utf-8"?>
<svg xmlns="http://www.w3.org/2000/svg" xmlns:xlink="http://www.w3.org/1999/xlink" style="margin: auto; background: none; display: block; shape-rendering: auto;" width="162px" height="162px" viewBox="0 0 100 100" preserveAspectRatio="xMidYMid">
<g transform="rotate(0 50 50)">
  <rect x="47" y="24" rx="3" ry="3" width="6" height="6" fill="#f66759">
    <animate attributeName="opacity" values="1;0" keyTimes="0;1" dur="2.0833333333333335s" begin="-1.8518518518518516s" repeatCount="indefinite"></animate>
  </rect>
</g><g transform="rotate(40 50 50)">
  <rect x="47" y="24" rx="3" ry="3" width="6" height="6" fill="#f66759">
    <animate attributeName="opacity" values="1;0" keyTimes="0;1" dur="2.0833333333333335s" begin="-1.6203703703703702s" repeatCount="indefinite"></animate>
  </rect>
</g><g transform="rotate(80 50 50)">
  <rect x="47" y="24" rx="3" ry="3" width="6" height="6" fill="#f66759">
    <animate attributeName="opacity" values="1;0" keyTimes="0;1" dur="2.0833333333333335s" begin="-1.3888888888888888s" repeatCount="indefinite"></animate>
  </rect>
</g><g transform="rotate(120 50 50)">
  <rect x="47" y="24" rx="3" ry="3" width="6" height="6" fill="#f66759">
    <animate attributeName="opacity" values="1;0" keyTimes="0;1" dur="2.0833333333333335s" begin="-1.1574074074074074s" repeatCount="indefinite"></animate>
  </rect>
</g><g transform="rotate(160 50 50)">
  <rect x="47" y="24" rx="3" ry="3" width="6" height="6" fill="#f66759">
    <animate attributeName="opacity" values="1;0" keyTimes="0;1" dur="2.0833333333333335s" begin="-0.9259259259259258s" repeatCount="indefinite"></animate>
  </rect>
</g><g transform="rotate(200 50 50)">
  <rect x="47" y="24" rx="3" ry="3" width="6" height="6" fill="#f66759">
    <animate attributeName="opacity" values="1;0" keyTimes="0;1" dur="2.0833333333333335s" begin="-0.6944444444444444s" repeatCount="indefinite"></animate>
  </rect>
</g><g transform="rotate(240 50 50)">
  <rect x="47" y="24" rx="3" ry="3" width="6" height="6" fill="#f66759">
    <animate attributeName="opacity" values="1;0" keyTimes="0;1" dur="2.0833333333333335s" begin="-0.4629629629629629s" repeatCount="indefinite"></animate>
  </rect>
</g><g transform="rotate(280 50 50)">
  <rect x="47" y="24" rx="3" ry="3" width="6" height="6" fill="#f66759">
    <animate attributeName="opacity" values="1;0" keyTimes="0;1" dur="2.0833333333333335s" begin="-0.23148148148148145s" repeatCount="indefinite"></animate>
  </rect>
</g><g transform="rotate(320 50 50)">
  <rect x="47" y="24" rx="3" ry="3" width="6" height="6" fill="#f66759">
    <animate attributeName="opacity" values="1;0" keyTimes="0;1" dur="2.0833333333333335s" begin="0s" repeatCount="indefinite"></animate>
  </rect>
</g>
<!-- [ldio] generated by https://loading.io/ --></svg>