<svg xmlns="http://www.w3.org/2000/svg" width="40" height="40" viewBox="0 0 40 40">
    <g fill="none" fill-rule="evenodd">
        <g fill="#FFF" fill-rule="nonzero" stroke="#D5D5D5">
            <g>
                <g>
                    <path d="M26.206 1.357c-3.135-.007-6.063 1.597-7.786 4.267l-.422.654-.42-.657c-1.71-2.681-4.644-4.288-7.786-4.264C4.662 1.357.5 5.594.5 10.825c0 .176.006.353.018.53.27 4.013 3.529 8.405 8.803 12.822 1.952 1.635 4.046 3.158 6.14 4.526.733.48 1.413.905 2.023 1.272.208.125.382.227.518.307.136-.079.309-.18.516-.303.61-.362 1.29-.782 2.023-1.256 2.094-1.355 4.187-2.865 6.139-4.492 5.52-4.6 8.82-9.195 8.82-13.404-.025-5.221-4.173-9.444-9.294-9.47z" transform="translate(-87 -1102) translate(87 1102) translate(2 5.143)"/>
                </g>
            </g>
        </g>
    </g>
</svg>
