{
  "asset": {
    "version": "2.0",
    "generator": "babylon.js glTF exporter for 3dsmax 2023 v20220518.1"
  },
  "scene": 0,
  "scenes": [
    {
      "nodes": [
        0,
        1,
        2,
        3,
        4
      ]
    }
  ],
  "nodes": [
    {
      "mesh": 0,
      "translation": [
        0.167963862,
        -0.05622959,
        -0.585354
      ],
      "scale": [
        0.3434939,
        1.0,
        3.890724
      ],
      "name": "Plane006"
    },
    {
      "mesh": 1,
      "translation": [
        0.167963862,
        8.449554E-06,
        -0.776298
      ],
      "rotation": [
        -0.7071068,
        0.0,
        0.0,
        0.7071067
      ],
      "scale": [
        0.8001622,
        0.7892973,
        0.8001622
      ],
      "name": "Torus102"
    },
    {
      "mesh": 2,
      "translation": [
        0.167963862,
        0.62897855,
        -0.416101068
      ],
      "name": "Box018"
    },
    {
      "mesh": 3,
      "translation": [
        0.167963862,
        5.9150877,
        -0.3383374
      ],
      "rotation": [
        0.7071068,
        0.0,
        0.0,
        0.7071067
      ],
      "scale": [
        0.238949031,
        8.12268448,
        0.238949031
      ],
      "name": "Tube002"
    },
    {
      "translation": [
        196.449448,
        21.874,
        -244.71698
      ],
      "name": "Group007"
    }
  ],
  "meshes": [
    {
      "primitives": [
        {
          "attributes": {
            "POSITION": 1,
            "NORMAL": 2,
            "TEXCOORD_0": 3
          },
          "indices": 0,
          "material": 0
        }
      ],
      "name": "Plane006"
    },
    {
      "primitives": [
        {
          "attributes": {
            "POSITION": 5,
            "NORMAL": 6,
            "TEXCOORD_0": 7
          },
          "indices": 4,
          "material": 1
        }
      ],
      "name": "Torus102"
    },
    {
      "primitives": [
        {
          "attributes": {
            "POSITION": 9,
            "NORMAL": 10,
            "TEXCOORD_0": 11
          },
          "indices": 8,
          "material": 2
        }
      ],
      "name": "Box018"
    },
    {
      "primitives": [
        {
          "attributes": {
            "POSITION": 13,
            "NORMAL": 14,
            "TEXCOORD_0": 15
          },
          "indices": 12,
          "material": 0
        }
      ],
      "name": "Tube002"
    }
  ],
  "accessors": [
    {
      "bufferView": 0,
      "componentType": 5123,
      "count": 36,
      "type": "SCALAR",
      "name": "accessorIndices"
    },
    {
      "bufferView": 1,
      "componentType": 5126,
      "count": 24,
      "max": [
        35.76435,
        0.049999997,
        2.75720453
      ],
      "min": [
        -35.76435,
        -0.049999997,
        -2.85535884
      ],
      "type": "VEC3",
      "name": "accessorPositions"
    },
    {
      "bufferView": 1,
      "byteOffset": 288,
      "componentType": 5126,
      "count": 24,
      "type": "VEC3",
      "name": "accessorNormals"
    },
    {
      "bufferView": 2,
      "componentType": 5126,
      "count": 24,
      "type": "VEC2",
      "name": "accessorUVs"
    },
    {
      "bufferView": 0,
      "byteOffset": 72,
      "componentType": 5123,
      "count": 1872,
      "type": "SCALAR",
      "name": "accessorIndices"
    },
    {
      "bufferView": 1,
      "byteOffset": 576,
      "componentType": 5126,
      "count": 351,
      "max": [
        13.40891,
        0.13,
        13.435421
      ],
      "min": [
        -13.40891,
        -0.13,
        -0.8436282
      ],
      "type": "VEC3",
      "name": "accessorPositions"
    },
    {
      "bufferView": 1,
      "byteOffset": 4788,
      "componentType": 5126,
      "count": 351,
      "type": "VEC3",
      "name": "accessorNormals"
    },
    {
      "bufferView": 2,
      "byteOffset": 192,
      "componentType": 5126,
      "count": 351,
      "type": "VEC2",
      "name": "accessorUVs"
    },
    {
      "bufferView": 0,
      "byteOffset": 3816,
      "componentType": 5123,
      "count": 36,
      "type": "SCALAR",
      "name": "accessorIndices"
    },
    {
      "bufferView": 1,
      "byteOffset": 9000,
      "componentType": 5126,
      "count": 24,
      "max": [
        9.783281,
        1.09863277E-05,
        10.55834
      ],
      "min": [
        -9.783281,
        -0.635199368,
        -11.2786036
      ],
      "type": "VEC3",
      "name": "accessorPositions"
    },
    {
      "bufferView": 1,
      "byteOffset": 9288,
      "componentType": 5126,
      "count": 24,
      "type": "VEC3",
      "name": "accessorNormals"
    },
    {
      "bufferView": 2,
      "byteOffset": 3000,
      "componentType": 5126,
      "count": 24,
      "type": "VEC2",
      "name": "accessorUVs"
    },
    {
      "bufferView": 0,
      "byteOffset": 3888,
      "componentType": 5123,
      "count": 1512,
      "type": "SCALAR",
      "name": "accessorIndices"
    },
    {
      "bufferView": 1,
      "byteOffset": 9576,
      "componentType": 5126,
      "count": 598,
      "max": [
        51.4186554,
        1.29027641,
        26.8898659
      ],
      "min": [
        -51.4186478,
        -1.39811373,
        -26.8898659
      ],
      "type": "VEC3",
      "name": "accessorPositions"
    },
    {
      "bufferView": 1,
      "byteOffset": 16752,
      "componentType": 5126,
      "count": 598,
      "type": "VEC3",
      "name": "accessorNormals"
    },
    {
      "bufferView": 2,
      "byteOffset": 3192,
      "componentType": 5126,
      "count": 598,
      "type": "VEC2",
      "name": "accessorUVs"
    }
  ],
  "bufferViews": [
    {
      "buffer": 0,
      "byteLength": 6912,
      "name": "bufferViewScalar"
    },
    {
      "buffer": 0,
      "byteOffset": 6912,
      "byteLength": 23928,
      "byteStride": 12,
      "name": "bufferViewFloatVec3"
    },
    {
      "buffer": 0,
      "byteOffset": 30840,
      "byteLength": 7976,
      "byteStride": 8,
      "name": "bufferViewFloatVec2"
    }
  ],
  "buffers": [
    {
      "uri": "0620_tunnel_bake.bin",
      "byteLength": 38816
    }
  ],
  "materials": [
    {
      "pbrMetallicRoughness": {
        "baseColorFactor": [
          0.5764706,
          0.5764706,
          0.5764706,
          1.0
        ],
        "metallicFactor": 0.0,
        "roughnessFactor": 0.5
      },
      "normalTexture": {
        "index": 0
      },
      "name": "02 - Default"
    },
    {
      "pbrMetallicRoughness": {
        "baseColorFactor": [
          0.280575544,
          0.115840569,
          0.0582633,
          1.0
        ],
        "metallicFactor": 0.0,
        "roughnessFactor": 0.5
      },
      "emissiveFactor": [
        0.107913673,
        0.0,
        0.0
      ],
      "name": "03 - Default"
    },
    {
      "pbrMetallicRoughness": {
        "baseColorTexture": {
          "index": 1
        },
        "metallicFactor": 0.0,
        "roughnessFactor": 0.5
      },
      "name": "01 - Default"
    }
  ],
  "textures": [
    {
      "sampler": 0,
      "source": 0,
      "name": "Chocofur_Concrete_Solid_06_diff.jpg"
    },
    {
      "sampler": 0,
      "source": 1,
      "name": "floor_bake.jpg"
    }
  ],
  "images": [
    {
      "uri": "Chocofur_Concrete_Solid_06_diff.jpg"
    },
    {
      "uri": "floor_bake.jpg"
    }
  ],
  "samplers": [
    {
      "magFilter": 9729,
      "minFilter": 9987
    }
  ]
}