# WaveFront *.obj file (generated by Cinema 4D)

mtllib ./Scene_05_floor.mtl

v 0.000000 0.000000 0.000000
v 3316.075069 0.000000 0.000000
v 3063.653885 0.000000 -1269.006990
v 2344.819168 0.000000 -2344.819168
v 1269.006990 0.000000 -3063.653885
v 0.000000 0.000000 -3316.075069
v -1269.006990 0.000000 -3063.653885
v -2344.819168 0.000000 -2344.819168
v -3063.653885 0.000000 -1269.006990
v -3316.075069 0.000000 -0.000000
v -3063.653885 0.000000 1269.006990
v -2344.819168 0.000000 2344.819168
v -1269.006990 0.000000 3063.653885
v -0.000000 0.000000 3316.075069
v 1269.006990 0.000000 3063.653885
v 2344.819168 0.000000 2344.819168
v 3063.653885 0.000000 1269.006990
# 17 vertices

vn 0.000000 1.000000 0.000000
vn 0.000000 1.000000 0.000000
vn 0.000000 1.000000 0.000000
# 3 normals

vt 1.000000 0.500000 0.000000
vt 0.500000 0.500000 0.000000
vt 0.961940 0.691342 0.000000
vt 0.000000 1.000000 0.000000
vt 0.853553 0.853553 0.000000
vt 0.691342 0.961940 0.000000
vt 0.500000 1.000000 0.000000
vt 0.308658 0.961940 0.000000
vt 0.146447 0.853553 0.000000
vt 0.038060 0.691342 0.000000
vt 0.000000 0.500000 0.000000
vt 0.038060 0.308658 0.000000
vt 0.146447 0.146447 0.000000
vt 0.308658 0.038060 0.000000
vt 0.500000 0.000000 0.000000
vt 0.691342 0.038060 0.000000
vt 0.853553 0.146447 0.000000
vt 0.961940 0.308658 0.000000
# 18 texture coordinates

o Disc
usemtl Mat
f 3/3/1 1/2/1 2/1/1
f 4/5/1 1/2/1 3/3/1
f 5/6/1 1/2/1 4/5/1
f 6/7/1 1/2/1 5/6/1
f 7/8/1 1/2/1 6/7/1
f 8/9/1 1/2/1 7/8/1
f 9/10/1 1/2/1 8/9/1
f 10/11/1 1/2/1 9/10/1
f 11/12/1 1/2/1 10/11/1
f 12/13/2 1/2/1 11/12/1
f 13/14/2 1/2/1 12/13/2
f 14/15/1 1/2/1 13/14/2
f 15/16/1 1/2/1 14/15/1
f 16/17/3 1/2/1 15/16/1
f 17/18/3 1/2/1 16/17/3
f 2/1/1 1/2/1 17/18/3

