<svg xmlns="http://www.w3.org/2000/svg" width="84" height="84" viewBox="0 0 84 84">
    <g data-name="그룹 72" transform="translate(-702 -467)">
        <path data-name="패스 35" d="M42 0A42 42 0 1 1 0 42 42 42 0 0 1 42 0z" transform="translate(702 467)" style="fill:rgba(255,255,255,.2)"/>
        <circle data-name="타원 15" cx="36" cy="36" r="36" transform="translate(708 473)" style="fill:rgba(255,255,255,.5)"/>
        <circle data-name="타원 16" cx="32" cy="32" r="32" transform="translate(712 477)" style="fill:rgba(0,0,0,.1)"/>
        <g data-name="그룹 22">
            <g data-name="그룹 105">
                <path data-name="패스 12" d="m550.746 271.12-.006 7.231q.278-.077.547-.158c3.214-.964 5.21-2.289 5.21-3.459 0-1.247-2.228-2.632-5.751-3.614" transform="translate(206.69 230.109)" style="fill:#fff"/>
                <path data-name="패스 13" d="M130.661 274.738c0 1.17 2 2.5 5.21 3.459q.266.08.54.156v-7.228c-3.522.982-5.75 2.367-5.75 3.614" transform="translate(594.918 230.105)" style="fill:#fff"/>
                <path data-name="패스 15" d="M222.824 440.425a1.893 1.893 0 0 0 .677-.639 1.547 1.547 0 0 0 .244-.834 1.846 1.846 0 0 0-.6-1.452 2.492 2.492 0 0 0-1.712-.531 2.269 2.269 0 0 0-1.23.336 2.988 2.988 0 0 0-.861.791l.813.823a1.623 1.623 0 0 1 .466-.515 1.366 1.366 0 0 1 .813-.211.94.94 0 0 1 .639.217.8.8 0 0 1 .249.639.962.962 0 0 1-.228.639.925.925 0 0 1-.748.271h-.574v1.148h.574a1.612 1.612 0 0 1 .991.255.869.869 0 0 1 .33.731.937.937 0 0 1-.352.791 1.667 1.667 0 0 1-1.425.19 1.372 1.372 0 0 1-.379-.211 1.79 1.79 0 0 1-.287-.287q-.125-.157-.233-.32l-.921.878a3.506 3.506 0 0 0 .341.439 2.373 2.373 0 0 0 .477.4 2.564 2.564 0 0 0 .65.292 2.961 2.961 0 0 0 .861.114 3.525 3.525 0 0 0 1.051-.152 2.66 2.66 0 0 0 .85-.433 2.087 2.087 0 0 0 .574-.682 1.922 1.922 0 0 0 .211-.91 1.79 1.79 0 0 0-1.267-1.777" transform="translate(513.207 76.835)" style="fill:#fff"/>
                <path data-name="패스 16" d="M303.553 440.105a2.173 2.173 0 0 0-1.576-.666 1.985 1.985 0 0 0-.948.211 2.2 2.2 0 0 0-.677.558 2.545 2.545 0 0 1 .509-1.527 1.344 1.344 0 0 1 1.04-.488 1.482 1.482 0 0 1 .8.211 1.757 1.757 0 0 1 .558.547l.932-.8a2.65 2.65 0 0 0-2.286-1.181 2.781 2.781 0 0 0-1.229.265 2.6 2.6 0 0 0-.932.764 3.582 3.582 0 0 0-.59 1.219 5.939 5.939 0 0 0-.206 1.63 5.431 5.431 0 0 0 .173 1.414 3.31 3.31 0 0 0 .52 1.116 2.464 2.464 0 0 0 .856.737 2.544 2.544 0 0 0 1.192.265 2.647 2.647 0 0 0 .991-.184 2.453 2.453 0 0 0 1.555-2.318 2.62 2.62 0 0 0-.184-1 2.41 2.41 0 0 0-.493-.769m-1.035 2.692a1.177 1.177 0 0 1-1.69 0 1.528 1.528 0 0 1 0-1.8 1.177 1.177 0 0 1 1.69 0 1.529 1.529 0 0 1 0 1.8" transform="translate(439.396 76.835)" style="fill:#fff"/>
                <path data-name="패스 17" d="M381.981 436.969a2.221 2.221 0 0 0-1.934.942 6.06 6.06 0 0 0 0 5.525 2.455 2.455 0 0 0 3.867 0 6.06 6.06 0 0 0 0-5.525 2.22 2.22 0 0 0-1.934-.942m.888 5.6a.967.967 0 0 1-1.777 0 6.291 6.291 0 0 1 0-3.792.967.967 0 0 1 1.777 0 6.29 6.29 0 0 1 0 3.792" transform="translate(365.057 76.835)" style="fill:#fff"/>
                <path data-name="패스 18" d="M485.49 420.721a1.263 1.263 0 0 0-.39-.238 1.324 1.324 0 0 0-.942 0 1.328 1.328 0 0 0-.4.238 1.1 1.1 0 0 0 0 1.647 1.32 1.32 0 0 0 .4.238 1.324 1.324 0 0 0 .942 0 1.256 1.256 0 0 0 .39-.238 1.11 1.11 0 0 0 .265-.363 1.136 1.136 0 0 0 0-.921 1.112 1.112 0 0 0-.265-.363" transform="translate(268.93 92.151)" style="fill:#fff"/>
                <path data-name="패스 14" d="M28.711 0a28.711 28.711 0 1 0 28.712 28.71A28.711 28.711 0 0 0 28.711 0m-6.687 15.106a2.793 2.793 0 0 1 2.793-2.793h7.79a2.793 2.793 0 0 1 2.793 2.793V22.9a2.793 2.793 0 0 1-2.793 2.793h-7.79a2.793 2.793 0 0 1-2.793-2.793zm26.908 23.442c0 1.93-2.151 3.6-6.22 4.816a50.831 50.831 0 0 1-14 1.744 50.83 50.83 0 0 1-14-1.744c-4.069-1.22-6.22-2.885-6.22-4.816V24.17c0-2.147 2.737-4 7.706-5.219a.708.708 0 0 1 .877.688v8.5a53.635 53.635 0 0 0 11.638 1.171 53.645 53.645 0 0 0 11.63-1.169l.008-8.506a.708.708 0 0 1 .877-.687c4.969 1.219 7.706 3.072 7.706 5.219z" transform="translate(715.672 480.673)" style="fill:#fff"/>
            </g>
        </g>
    </g>
</svg>
