<svg xmlns="http://www.w3.org/2000/svg" width="138.87" height="99.813" viewBox="0 0 138.87 99.813">
    <g data-name="그룹 3147" transform="translate(16123.577 4736.742)">
        <g data-name="사각형 2518" transform="translate(-16123.577 -4736.742)" style="stroke:#000;stroke-width:2px;fill:none">
            <rect width="138.87" height="99.813" rx="10" style="stroke:none"/>
            <rect x="1" y="1" width="136.87" height="97.813" rx="9" style="fill:none"/>
        </g>
        <path data-name="선 14" transform="translate(-16122.442 -4720.484)" style="stroke:#000;stroke-width:2px;fill:none" d="M0 0h137.621"/>
        <circle data-name="타원 405" cx="3.025" cy="3.025" transform="translate(-16114.503 -4731.449)" r="3.025"/>
        <circle data-name="타원 406" cx="3.025" cy="3.025" transform="translate(-16103.161 -4731.449)" r="3.025"/>
        <circle data-name="타원 407" cx="3.025" cy="3.025" transform="translate(-16091.819 -4731.449)" r="3.025"/>
        <g data-name="다각형 8" style="fill:none">
            <path d="M28.944 7.474a5 5 0 0 1 8.654 0L62.2 49.963a5 5 0 0 1-4.327 7.505H8.672a5 5 0 0 1-4.327-7.505z" style="stroke:none" transform="translate(-16087.281 -4710.804)"/>
            <path d="M33.271 6.98a2.97 2.97 0 0 0-2.596 1.496L6.076 50.965a2.97 2.97 0 0 0-.003 3.001 2.97 2.97 0 0 0 2.6 1.502H57.87a2.97 2.97 0 0 0 2.599-1.502 2.97 2.97 0 0 0-.003-3.001L35.867 8.476a2.97 2.97 0 0 0-2.596-1.497m0-2c1.682 0 3.364.832 4.327 2.495l24.599 42.489c1.93 3.333-.476 7.505-4.327 7.505H8.672c-3.851 0-6.257-4.172-4.327-7.505L28.944 7.474A4.953 4.953 0 0 1 33.27 4.98z" style="fill:#000;stroke:none" transform="translate(-16087.281 -4710.804)"/>
        </g>
        <path data-name="Icon awesome-exclamation" d="M-16050.036-4666.118a3.931 3.931 0 1 1-3.93-3.926 3.935 3.935 0 0 1 3.93 3.926zm-7.406-19.988.668 13.362a1.179 1.179 0 0 0 1.178 1.12h3.26a1.179 1.179 0 0 0 1.177-1.12l.668-13.362a1.179 1.179 0 0 0-1.177-1.238h-4.6a1.179 1.179 0 0 0-1.174 1.238z"/>
    </g>
</svg>
