{
  "asset": {
    "version": "2.0",
    "generator": "babylon.js glTF exporter for 3dsmax 2023 v20220518.1"
  },
  "scene": 0,
  "scenes": [
    {
      "nodes": [
        0,
        1,
        2,
        3,
        4,
        5,
        6,
        7,
        8
      ]
    }
  ],
  "nodes": [
    {
      "mesh": 0,
      "translation": [
        0.235572889,
        0.599715233,
        -0.004430565
      ],
      "rotation": [
        0.7071068,
        0.0,
        0.0,
        0.7071067
      ],
      "scale": [
        10.0,
        10.0,
        10.0
      ],
      "name": "interiorset01",
      "extras": {
        "currentUVSet": "map1"
      }
    },
    {
      "mesh": 1,
      "translation": [
        0.07304236,
        0.5991415,
        -0.004430565
      ],
      "rotation": [
        0.7071068,
        0.0,
        0.0,
        0.7071067
      ],
      "scale": [
        10.0,
        10.0,
        10.0
      ],
      "name": "exterior1",
      "extras": {
        "currentUVSet": "map1"
      }
    },
    {
      "mesh": 2,
      "translation": [
        0.158616409,
        0.503223538,
        -0.004430565
      ],
      "rotation": [
        0.7071068,
        0.0,
        0.0,
        0.7071067
      ],
      "scale": [
        10.0,
        10.0,
        10.0
      ],
      "name": "light_dummy_top",
      "extras": {
        "currentUVSet": "map1"
      }
    },
    {
      "mesh": 3,
      "translation": [
        0.0648487,
        0.603203058,
        -0.004430565
      ],
      "rotation": [
        0.7071068,
        0.0,
        0.0,
        0.7071067
      ],
      "scale": [
        10.0,
        10.0,
        10.0
      ],
      "name": "interiorset02",
      "extras": {
        "currentUVSet": "map1"
      }
    },
    {
      "mesh": 4,
      "translation": [
        0.158616409,
        0.503223538,
        -0.004430565
      ],
      "rotation": [
        0.7071068,
        0.0,
        0.0,
        0.7071067
      ],
      "scale": [
        10.0,
        10.0,
        10.0
      ],
      "name": "light_dummy_bot",
      "extras": {
        "currentUVSet": "map1"
      }
    },
    {
      "mesh": 5,
      "translation": [
        0.07304236,
        0.5991415,
        -0.004430565
      ],
      "rotation": [
        0.7071068,
        0.0,
        0.0,
        0.7071067
      ],
      "scale": [
        10.0,
        10.0,
        10.0
      ],
      "name": "exterior2",
      "extras": {
        "currentUVSet": "map1"
      }
    },
    {
      "mesh": 6,
      "translation": [
        0.07304236,
        0.5991415,
        -0.004430565
      ],
      "rotation": [
        0.7071068,
        0.0,
        0.0,
        0.7071067
      ],
      "scale": [
        10.0,
        10.0,
        10.0
      ],
      "name": "DSM",
      "extras": {
        "currentUVSet": "map1"
      }
    },
    {
      "mesh": 7,
      "translation": [
        0.235572889,
        0.599715233,
        -0.004430565
      ],
      "rotation": [
        0.7071068,
        0.0,
        0.0,
        0.7071067
      ],
      "scale": [
        10.0,
        10.0,
        10.0
      ],
      "name": "mirror",
      "extras": {
        "currentUVSet": "map1"
      }
    },
    {
      "mesh": 8,
      "translation": [
        0.0719092,
        0.365974218,
        -0.0107922284
      ],
      "scale": [
        0.662101746,
        1.0,
        0.352555066
      ],
      "name": "Plane001"
    }
  ],
  "meshes": [
    {
      "primitives": [
        {
          "attributes": {
            "POSITION": 1,
            "NORMAL": 2,
            "TEXCOORD_0": 3,
            "TEXCOORD_1": 4
          },
          "indices": 0,
          "material": 0
        },
        {
          "attributes": {
            "POSITION": 6,
            "NORMAL": 7,
            "TEXCOORD_0": 8,
            "TEXCOORD_1": 9
          },
          "indices": 5,
          "material": 1
        }
      ],
      "name": "interiorset01"
    },
    {
      "primitives": [
        {
          "attributes": {
            "POSITION": 11,
            "NORMAL": 12,
            "TEXCOORD_0": 13
          },
          "indices": 10,
          "material": 2
        }
      ],
      "name": "exterior1"
    },
    {
      "primitives": [
        {
          "attributes": {
            "POSITION": 15,
            "NORMAL": 16,
            "TEXCOORD_0": 17
          },
          "indices": 14,
          "material": 3
        }
      ],
      "name": "light_dummy_top"
    },
    {
      "primitives": [
        {
          "attributes": {
            "POSITION": 19,
            "NORMAL": 20,
            "TEXCOORD_0": 21
          },
          "indices": 18,
          "material": 4
        }
      ],
      "name": "interiorset02"
    },
    {
      "primitives": [
        {
          "attributes": {
            "POSITION": 23,
            "NORMAL": 24,
            "TEXCOORD_0": 25
          },
          "indices": 22,
          "material": 3
        }
      ],
      "name": "light_dummy_bot"
    },
    {
      "primitives": [
        {
          "attributes": {
            "POSITION": 27,
            "NORMAL": 28,
            "TEXCOORD_0": 29
          },
          "indices": 26,
          "material": 5
        }
      ],
      "name": "exterior2"
    },
    {
      "primitives": [
        {
          "attributes": {
            "POSITION": 31,
            "NORMAL": 32,
            "TEXCOORD_0": 33
          },
          "indices": 30,
          "material": 6
        }
      ],
      "name": "DSM"
    },
    {
      "primitives": [
        {
          "attributes": {
            "POSITION": 35,
            "NORMAL": 36,
            "TEXCOORD_0": 37,
            "TEXCOORD_1": 38
          },
          "indices": 34,
          "material": 7
        }
      ],
      "name": "mirror"
    },
    {
      "primitives": [
        {
          "attributes": {
            "POSITION": 40,
            "NORMAL": 41,
            "TEXCOORD_0": 42
          },
          "indices": 39,
          "material": 8
        }
      ],
      "name": "Plane001"
    }
  ],
  "accessors": [
    {
      "bufferView": 0,
      "componentType": 5123,
      "count": 274173,
      "type": "SCALAR",
      "name": "accessorIndices"
    },
    {
      "bufferView": 1,
      "componentType": 5126,
      "count": 63051,
      "max": [
        0.08384184,
        0.08171514,
        0.0522724874
      ],
      "min": [
        -0.08384183,
        -0.08171514,
        -0.0583538339
      ],
      "type": "VEC3",
      "name": "accessorPositions"
    },
    {
      "bufferView": 1,
      "byteOffset": 756612,
      "componentType": 5126,
      "count": 63051,
      "type": "VEC3",
      "name": "accessorNormals"
    },
    {
      "bufferView": 2,
      "componentType": 5126,
      "count": 63051,
      "type": "VEC2",
      "name": "accessorUVs"
    },
    {
      "bufferView": 2,
      "byteOffset": 504408,
      "componentType": 5126,
      "count": 63051,
      "type": "VEC2",
      "name": "accessorUV2s"
    },
    {
      "bufferView": 0,
      "byteOffset": 548348,
      "componentType": 5123,
      "count": 48,
      "type": "SCALAR",
      "name": "accessorIndices"
    },
    {
      "bufferView": 1,
      "byteOffset": 1513224,
      "componentType": 5126,
      "count": 15,
      "max": [
        -0.0375557877,
        0.0558918566,
        -0.008065739
      ],
      "min": [
        -0.0392774455,
        -0.0161802322,
        -0.0221253633
      ],
      "type": "VEC3",
      "name": "accessorPositions"
    },
    {
      "bufferView": 1,
      "byteOffset": 1513404,
      "componentType": 5126,
      "count": 15,
      "type": "VEC3",
      "name": "accessorNormals"
    },
    {
      "bufferView": 2,
      "byteOffset": 1008816,
      "componentType": 5126,
      "count": 15,
      "type": "VEC2",
      "name": "accessorUVs"
    },
    {
      "bufferView": 2,
      "byteOffset": 1008936,
      "componentType": 5126,
      "count": 15,
      "type": "VEC2",
      "name": "accessorUV2s"
    },
    {
      "bufferView": 0,
      "byteOffset": 548444,
      "componentType": 5123,
      "count": 53502,
      "type": "SCALAR",
      "name": "accessorIndices"
    },
    {
      "bufferView": 1,
      "byteOffset": 1513584,
      "componentType": 5126,
      "count": 13567,
      "max": [
        0.07879335,
        0.103617318,
        0.05747882
      ],
      "min": [
        -0.07879335,
        -0.103617318,
        -0.05747882
      ],
      "type": "VEC3",
      "name": "accessorPositions"
    },
    {
      "bufferView": 1,
      "byteOffset": 1676388,
      "componentType": 5126,
      "count": 13567,
      "type": "VEC3",
      "name": "accessorNormals"
    },
    {
      "bufferView": 2,
      "byteOffset": 1009056,
      "componentType": 5126,
      "count": 13567,
      "type": "VEC2",
      "name": "accessorUVs"
    },
    {
      "bufferView": 0,
      "byteOffset": 655448,
      "componentType": 5123,
      "count": 5100,
      "type": "SCALAR",
      "name": "accessorIndices"
    },
    {
      "bufferView": 1,
      "byteOffset": 1839192,
      "componentType": 5126,
      "count": 985,
      "max": [
        0.05031659,
        0.07997492,
        0.012889958
      ],
      "min": [
        -0.0503165834,
        -0.07998733,
        -0.03350399
      ],
      "type": "VEC3",
      "name": "accessorPositions"
    },
    {
      "bufferView": 1,
      "byteOffset": 1851012,
      "componentType": 5126,
      "count": 985,
      "type": "VEC3",
      "name": "accessorNormals"
    },
    {
      "bufferView": 2,
      "byteOffset": 1117592,
      "componentType": 5126,
      "count": 985,
      "type": "VEC2",
      "name": "accessorUVs"
    },
    {
      "bufferView": 0,
      "byteOffset": 665648,
      "componentType": 5123,
      "count": 147369,
      "type": "SCALAR",
      "name": "accessorIndices"
    },
    {
      "bufferView": 1,
      "byteOffset": 1862832,
      "componentType": 5126,
      "count": 27867,
      "max": [
        0.0685684159,
        0.07958384,
        0.0524615571
      ],
      "min": [
        -0.06856841,
        -0.07958384,
        -0.05246156
      ],
      "type": "VEC3",
      "name": "accessorPositions"
    },
    {
      "bufferView": 1,
      "byteOffset": 2197236,
      "componentType": 5126,
      "count": 27867,
      "type": "VEC3",
      "name": "accessorNormals"
    },
    {
      "bufferView": 2,
      "byteOffset": 1125472,
      "componentType": 5126,
      "count": 27867,
      "type": "VEC2",
      "name": "accessorUVs"
    },
    {
      "bufferView": 0,
      "byteOffset": 960388,
      "componentType": 5123,
      "count": 3972,
      "type": "SCALAR",
      "name": "accessorIndices"
    },
    {
      "bufferView": 1,
      "byteOffset": 2531640,
      "componentType": 5126,
      "count": 770,
      "max": [
        0.04166173,
        0.07930573,
        0.03350399
      ],
      "min": [
        -0.0435393639,
        -0.07930716,
        0.003257229
      ],
      "type": "VEC3",
      "name": "accessorPositions"
    },
    {
      "bufferView": 1,
      "byteOffset": 2540880,
      "componentType": 5126,
      "count": 770,
      "type": "VEC3",
      "name": "accessorNormals"
    },
    {
      "bufferView": 2,
      "byteOffset": 1348408,
      "componentType": 5126,
      "count": 770,
      "type": "VEC2",
      "name": "accessorUVs"
    },
    {
      "bufferView": 0,
      "byteOffset": 968332,
      "componentType": 5123,
      "count": 24,
      "type": "SCALAR",
      "name": "accessorIndices"
    },
    {
      "bufferView": 1,
      "byteOffset": 2550120,
      "componentType": 5126,
      "count": 16,
      "max": [
        -0.0168525018,
        0.08206458,
        0.053008575
      ],
      "min": [
        -0.06931003,
        -0.08332118,
        -0.009584241
      ],
      "type": "VEC3",
      "name": "accessorPositions"
    },
    {
      "bufferView": 1,
      "byteOffset": 2550312,
      "componentType": 5126,
      "count": 16,
      "type": "VEC3",
      "name": "accessorNormals"
    },
    {
      "bufferView": 2,
      "byteOffset": 1354568,
      "componentType": 5126,
      "count": 16,
      "type": "VEC2",
      "name": "accessorUVs"
    },
    {
      "bufferView": 0,
      "byteOffset": 968380,
      "componentType": 5123,
      "count": 59586,
      "type": "SCALAR",
      "name": "accessorIndices"
    },
    {
      "bufferView": 1,
      "byteOffset": 2550504,
      "componentType": 5126,
      "count": 10807,
      "max": [
        -0.0145851141,
        0.10365393,
        -0.0126644708
      ],
      "min": [
        -0.0377577581,
        -0.10365393,
        -0.0294869058
      ],
      "type": "VEC3",
      "name": "accessorPositions"
    },
    {
      "bufferView": 1,
      "byteOffset": 2680188,
      "componentType": 5126,
      "count": 10807,
      "type": "VEC3",
      "name": "accessorNormals"
    },
    {
      "bufferView": 2,
      "byteOffset": 1354696,
      "componentType": 5126,
      "count": 10807,
      "type": "VEC2",
      "name": "accessorUVs"
    },
    {
      "bufferView": 0,
      "byteOffset": 1087552,
      "componentType": 5123,
      "count": 234,
      "type": "SCALAR",
      "name": "accessorIndices"
    },
    {
      "bufferView": 1,
      "byteOffset": 2809872,
      "componentType": 5126,
      "count": 62,
      "max": [
        -0.0130654834,
        0.07089527,
        -0.012547696
      ],
      "min": [
        -0.0481435731,
        -0.06881694,
        -0.0459591337
      ],
      "type": "VEC3",
      "name": "accessorPositions"
    },
    {
      "bufferView": 1,
      "byteOffset": 2810616,
      "componentType": 5126,
      "count": 62,
      "type": "VEC3",
      "name": "accessorNormals"
    },
    {
      "bufferView": 2,
      "byteOffset": 1441152,
      "componentType": 5126,
      "count": 62,
      "type": "VEC2",
      "name": "accessorUVs"
    },
    {
      "bufferView": 2,
      "byteOffset": 1441648,
      "componentType": 5126,
      "count": 62,
      "type": "VEC2",
      "name": "accessorUV2s"
    },
    {
      "bufferView": 0,
      "byteOffset": 1088020,
      "componentType": 5123,
      "count": 288,
      "type": "SCALAR",
      "name": "accessorIndices"
    },
    {
      "bufferView": 1,
      "byteOffset": 2811360,
      "componentType": 5126,
      "count": 75,
      "max": [
        0.367262334,
        0.0892025158,
        0.1648568
      ],
      "min": [
        -0.224474743,
        0.0,
        -0.144661486
      ],
      "type": "VEC3",
      "name": "accessorPositions"
    },
    {
      "bufferView": 1,
      "byteOffset": 2812260,
      "componentType": 5126,
      "count": 75,
      "type": "VEC3",
      "name": "accessorNormals"
    },
    {
      "bufferView": 2,
      "byteOffset": 1442144,
      "componentType": 5126,
      "count": 75,
      "type": "VEC2",
      "name": "accessorUVs"
    }
  ],
  "bufferViews": [
    {
      "buffer": 0,
      "byteLength": 1088596,
      "name": "bufferViewScalar"
    },
    {
      "buffer": 0,
      "byteOffset": 1088596,
      "byteLength": 2813160,
      "byteStride": 12,
      "name": "bufferViewFloatVec3"
    },
    {
      "buffer": 0,
      "byteOffset": 3901756,
      "byteLength": 1442744,
      "byteStride": 8,
      "name": "bufferViewFloatVec2"
    }
  ],
  "buffers": [
    {
      "uri": "ionic6_interior_0703.bin",
      "byteLength": 5344500
    }
  ],
  "materials": [
    {
      "pbrMetallicRoughness": {
        "baseColorTexture": {
          "index": 2
        },
        "metallicRoughnessTexture": {
          "index": 3
        }
      },
      "normalTexture": {
        "index": 0
      },
      "emissiveTexture": {
        "index": 1
      },
      "emissiveFactor": [
        1.0,
        1.0,
        1.0
      ],
      "doubleSided": true,
      "name": "standardSurface17"
    },
    {
      "pbrMetallicRoughness": {
        "baseColorTexture": {
          "index": 5
        },
        "metallicRoughnessTexture": {
          "index": 6
        }
      },
      "normalTexture": {
        "index": 4
      },
      "doubleSided": true,
      "name": "standardSurface19"
    },
    {
      "pbrMetallicRoughness": {
        "baseColorFactor": [
          0.819607854,
          0.819607854,
          0.819607854,
          1.0
        ],
        "metallicFactor": 0.0,
        "roughnessFactor": 0.200000048
      },
      "doubleSided": true,
      "name": "cx base color",
      "extras": {
        "babylonSeparateCullingPass": false
      }
    },
    {
      "pbrMetallicRoughness": {
        "baseColorFactor": [
          0.4,
          0.4,
          0.4,
          1.0
        ],
        "metallicFactor": 0.0,
        "roughnessFactor": 0.734195054
      },
      "normalTexture": {
        "index": 7
      },
      "doubleSided": true,
      "name": "blinn13",
      "extras": {
        "babylonSeparateCullingPass": false
      }
    },
    {
      "pbrMetallicRoughness": {
        "baseColorTexture": {
          "index": 9
        },
        "metallicRoughnessTexture": {
          "index": 10
        }
      },
      "normalTexture": {
        "index": 8
      },
      "doubleSided": true,
      "name": "normalbake",
      "extras": {
        "babylonSeparateCullingPass": false
      }
    },
    {
      "pbrMetallicRoughness": {
        "baseColorFactor": [
          0.0,
          0.0,
          0.0,
          1.0
        ],
        "metallicFactor": 0.0,
        "roughnessFactor": 0.76
      },
      "doubleSided": true,
      "name": "back board",
      "extras": {
        "babylonSeparateCullingPass": false
      }
    },
    {
      "pbrMetallicRoughness": {
        "baseColorFactor": [
          0.0,
          0.0,
          0.0,
          1.0
        ],
        "metallicFactor": 0.0,
        "roughnessFactor": 0.190000057
      },
      "doubleSided": true,
      "name": "dsm",
      "extras": {
        "babylonSeparateCullingPass": false
      }
    },
    {
      "pbrMetallicRoughness": {
        "baseColorTexture": {
          "index": 11
        },
        "metallicFactor": 0.0,
        "roughnessFactor": 0.100000024
      },
      "doubleSided": true,
      "name": "mirror",
      "extras": {
        "babylonSeparateCullingPass": false
      }
    },
    {
      "pbrMetallicRoughness": {
        "baseColorFactor": [
          0.0292941183,
          0.0292941183,
          0.0292941183,
          1.0
        ],
        "metallicFactor": 0.0
      },
      "name": "04 - Default"
    }
  ],
  "textures": [
    {
      "sampler": 0,
      "source": 0,
      "name": "standardSurface17_normal.png"
    },
    {
      "sampler": 0,
      "source": 1,
      "name": "standardSurface17_emissive.png"
    },
    {
      "sampler": 0,
      "source": 2,
      "name": "standardSurface17_baseColor.png"
    },
    {
      "sampler": 0,
      "source": 3,
      "name": "standardSurface17_occlusionRoughnessMetallic.png"
    },
    {
      "sampler": 0,
      "source": 4,
      "name": "standardSurface19_normal.png"
    },
    {
      "sampler": 0,
      "source": 5,
      "name": "standardSurface19_baseColor.jpg"
    },
    {
      "sampler": 0,
      "source": 6,
      "name": "standardSurface19_occlusionRoughnessMetallic.png"
    },
    {
      "sampler": 0,
      "source": 7,
      "name": "blinn13_baseColor.jpg"
    },
    {
      "sampler": 0,
      "source": 8,
      "name": "normalbake_normal.png"
    },
    {
      "sampler": 0,
      "source": 9,
      "name": "normalbake_baseColor.png"
    },
    {
      "sampler": 0,
      "source": 10,
      "name": "normalbake_occlusionRoughnessMetallic.png"
    },
    {
      "sampler": 0,
      "source": 11,
      "name": "mirrortexture.jpg"
    }
  ],
  "images": [
    {
      "uri": "standardSurface17_normal.png"
    },
    {
      "uri": "standardSurface17_emissive.png"
    },
    {
      "uri": "standardSurface17_baseColor.png"
    },
    {
      "uri": "standardSurface17_occlusionRoughnessMetallic.png"
    },
    {
      "uri": "standardSurface19_normal.png"
    },
    {
      "uri": "standardSurface19_baseColor.jpg"
    },
    {
      "uri": "standardSurface19_occlusionRoughnessMetallic.png"
    },
    {
      "uri": "blinn13_baseColor.jpg"
    },
    {
      "uri": "normalbake_normal.png"
    },
    {
      "uri": "normalbake_baseColor.png"
    },
    {
      "uri": "normalbake_occlusionRoughnessMetallic.png"
    },
    {
      "uri": "mirrortexture.jpg"
    }
  ],
  "samplers": [
    {
      "magFilter": 9729,
      "minFilter": 9987
    }
  ]
}