<svg xmlns="http://www.w3.org/2000/svg" width="84" height="84" viewBox="0 0 84 84">
    <defs>
        <clipPath id="qtoum4i06a">
            <path data-name="사각형 2" style="fill:#fff" d="M0 0h57.42v57.42H0z"/>
        </clipPath>
    </defs>
    <g data-name="그룹 54">
        <g data-name="그룹 52" transform="translate(-702 -467)">
            <path data-name="패스 39" d="M42 0A42 42 0 1 1 0 42 42 42 0 0 1 42 0z" transform="translate(702 467)" style="fill:rgba(255,255,255,.2)"/>
            <circle data-name="타원 15" cx="36" cy="36" r="36" transform="translate(708 473)" style="fill:rgba(255,255,255,.5)"/>
            <circle data-name="타원 16" cx="32" cy="32" r="32" transform="translate(712 477)" style="fill:rgba(0,0,0,.1)"/>
        </g>
        <g data-name="그룹 53">
            <g data-name="그룹 1" style="clip-path:url(#qtoum4i06a)" transform="translate(13.29 13.29)">
                <path data-name="패스 1" d="M332.774 292.97h-4.141a1.388 1.388 0 0 0-1.388 1.388v5.529h5.529a1.388 1.388 0 0 0 1.388-1.388v-4.141a1.388 1.388 0 0 0-1.388-1.388" transform="translate(-299.134 -267.804)" style="fill:#fff"/>
                <path data-name="패스 2" d="M28.71 0a28.71 28.71 0 1 0 28.71 28.71A28.71 28.71 0 0 0 28.71 0M14.269 37.611A1.388 1.388 0 0 1 12.881 39h-4.14a1.388 1.388 0 0 1-1.388-1.388V33.47a1.388 1.388 0 0 1 1.388-1.388h4.141a1.388 1.388 0 0 1 1.388 1.388zm6.925-5.53h-5.529a1.388 1.388 0 0 1-1.388-1.388v-4.14a1.388 1.388 0 0 1 1.388-1.388h5.529zm27.183-1.494L33.807 39h-5.694V44.528a1.388 1.388 0 0 1-1.388 1.388h-4.14a1.388 1.388 0 0 1-1.388-1.388V39h6.913v-6.918h-6.916V14.894a3.382 3.382 0 0 1 5.073-2.929l22.109 12.764a3.382 3.382 0 0 1 0 5.858" transform="translate(0 -.001)" style="fill:#fff"/>
            </g>
        </g>
    </g>
</svg>
