<svg xmlns="http://www.w3.org/2000/svg" width="84" height="84" viewBox="0 0 84 84">
    <defs>
        <clipPath id="wu1evwiz5a">
            <path data-name="사각형 5" style="fill:#fff" d="M0 0h57.42v57.42H0z"/>
        </clipPath>
        <clipPath id="w7syn8axqb">
            <path data-name="사각형 3" style="fill:#fff" d="M0 0h11.834v11.834H0z"/>
        </clipPath>
        <clipPath id="sb9s1vve1c">
            <path data-name="사각형 4" style="fill:#fff" d="M0 0h2.776v3.019H0z"/>
        </clipPath>
    </defs>
    <g data-name="그룹 73">
        <g data-name="그룹 55" transform="translate(-702 -467)">
            <circle data-name="타원 14" cx="42" cy="42" r="42" transform="translate(702 467)" style="fill:rgba(255,255,255,.2)"/>
            <circle data-name="타원 15" cx="36" cy="36" r="36" transform="translate(708 473)" style="fill:rgba(255,255,255,.5)"/>
            <circle data-name="타원 16" cx="32" cy="32" r="32" transform="translate(712 477)" style="fill:rgba(0,0,0,.1)"/>
        </g>
        <g data-name="그룹 10">
            <g data-name="그룹 9" style="clip-path:url(#wu1evwiz5a)" transform="translate(13.29 13.29)">
                <path data-name="패스 3" d="M463.317 397.49h-2.484a.833.833 0 0 1-.833-.833v-2.484a.833.833 0 0 1 .833-.833h2.484a.833.833 0 0 1 .833.833v2.484a.833.833 0 0 1-.833.833" transform="translate(-425.123 -363.517)" style="fill:#fff"/>
                <path data-name="패스 4" d="M408.539 452.453h-2.484a.833.833 0 0 1-.833-.833v-2.484a.833.833 0 0 1 .833-.833h2.484a.833.833 0 0 1 .833.833v2.484a.833.833 0 0 1-.833.833" transform="translate(-374.499 -414.313)" style="fill:#fff"/>
                <path data-name="패스 5" d="M515.729 452.453h2.484a.833.833 0 0 0 .833-.833v-2.484a.833.833 0 0 0-.833-.833h-2.484a.833.833 0 0 0-.833.833v2.484a.833.833 0 0 0 .833.833" transform="translate(-475.857 -414.313)" style="fill:#fff"/>
                <path data-name="패스 6" d="M463.465 507.119h-2.484a.833.833 0 0 1-.833-.833V503.8a.833.833 0 0 1 .833-.833h2.484a.833.833 0 0 1 .833.833v2.484a.833.833 0 0 1-.833.833" transform="translate(-425.26 -464.835)" style="fill:#fff"/>
                <g data-name="그룹 5" style="opacity:.5">
                    <g data-name="그룹 4">
                        <g data-name="그룹 3" style="clip-path:url(#w7syn8axqb)" transform="translate(13.875 30.137)">
                            <path data-name="패스 7" d="M194.834 403.4a5.917 5.917 0 1 1-5.917-5.917 5.917 5.917 0 0 1 5.917 5.917" transform="translate(-183 -397.483)" style="fill:#fff"/>
                        </g>
                    </g>
                </g>
                <path data-name="패스 8" d="M28.71 0a28.71 28.71 0 1 0 28.71 28.71A28.71 28.71 0 0 0 28.71 0m10.918 45.881H17.792a9.828 9.828 0 1 1 0-19.655h.608v-3.019a5.917 5.917 0 1 1 2.776 0v3.018h18.452a9.828 9.828 0 1 1 0 19.655" style="fill:#fff"/>
                <path data-name="패스 9" d="M244.12 356.835a1.392 1.392 0 0 0 1.388-1.388V345.9h-2.776v9.546a1.392 1.392 0 0 0 1.388 1.388" transform="translate(-224.328 -319.675)" style="fill:#fff"/>
                <g data-name="그룹 8" style="opacity:.5">
                    <g data-name="그룹 7">
                        <g data-name="그룹 6" style="clip-path:url(#sb9s1vve1c)" transform="translate(18.404 23.207)">
                            <path data-name="패스 10" d="M245.507 306.088a5.908 5.908 0 0 1-2.776 0v3.019h2.776z" transform="translate(-242.731 -306.088)" style="fill:#fff"/>
                        </g>
                    </g>
                </g>
            </g>
        </g>
    </g>
</svg>
